<svg xmlns="http://www.w3.org/2000/svg" width="31.844" height="31.53" viewBox="0 0 31.844 31.53">
  <metadata><?xpacket begin="﻿" id="W5M0MpCehiHzreSzNTczkc9d"?>
<x:xmpmeta xmlns:x="adobe:ns:meta/" x:xmptk="Adobe XMP Core 5.6-c142 79.160924, 2017/07/13-01:06:39        ">
   <rdf:RDF xmlns:rdf="http://www.w3.org/1999/02/22-rdf-syntax-ns#">
      <rdf:Description rdf:about=""/>
   </rdf:RDF>
</x:xmpmeta>
                                                                                                    
                                                                                                    
                                                                                                    
                                                                                                    
                                                                                                    
                                                                                                    
                                                                                                    
                                                                                                    
                                                                                                    
                                                                                                    
                                                                                                    
                                                                                                    
                                                                                                    
                                                                                                    
                                                                                                    
                                                                                                    
                                                                                                    
                                                                                                    
                                                                                                    
                                                                                                    
                           
<?xpacket end="w"?></metadata>
<defs>
    <style>
      .cls-1 {
        fill: #d7cdcd;
        fill-rule: evenodd;
      }
    </style>
  </defs>
  <path id="backups" class="cls-1" d="M913.442,4130.28a15.963,15.963,0,0,1-11.257-4.61,15.649,15.649,0,0,1-1-21.24l1.525,1.26a13.7,13.7,0,0,0,.872,18.59,14.005,14.005,0,0,0,17.246,1.9l1.063,1.67A15.9,15.9,0,0,1,913.442,4130.28Zm-9.923-20.7h-1.983v-3.95H897.57v-1.97h5.949v5.92Zm22.157,15.01-1.524-1.26a13.7,13.7,0,0,0-.873-18.59,14.032,14.032,0,0,0-17.246-1.9l-1.063-1.66a16.007,16.007,0,0,1,19.711,2.17A15.65,15.65,0,0,1,925.676,4124.59Z" transform="translate(-897.5 -4098.75)"/>
</svg>
