<svg xmlns="http://www.w3.org/2000/svg" width="27.47" height="29.59" viewBox="0 0 27.47 29.59">
  <metadata><?xpacket begin="﻿" id="W5M0MpCehiHzreSzNTczkc9d"?>
<x:xmpmeta xmlns:x="adobe:ns:meta/" x:xmptk="Adobe XMP Core 5.6-c142 79.160924, 2017/07/13-01:06:39        ">
   <rdf:RDF xmlns:rdf="http://www.w3.org/1999/02/22-rdf-syntax-ns#">
      <rdf:Description rdf:about=""/>
   </rdf:RDF>
</x:xmpmeta>
                                                                                                    
                                                                                                    
                                                                                                    
                                                                                                    
                                                                                                    
                                                                                                    
                                                                                                    
                                                                                                    
                                                                                                    
                                                                                                    
                                                                                                    
                                                                                                    
                                                                                                    
                                                                                                    
                                                                                                    
                                                                                                    
                                                                                                    
                                                                                                    
                                                                                                    
                                                                                                    
                           
<?xpacket end="w"?></metadata>
<defs>
    <style>
      .cls-1 {
        fill: #fff;
        fill-rule: evenodd;
      }
    </style>
  </defs>
  <path id="calendar" class="cls-1" d="M1102.36,2466.98h23.26v16.91h-23.26v-16.91Zm6.19-2.79a0.5,0.5,0,0,1-.38.15h-1.05a0.5,0.5,0,0,1-.38-0.15,0.52,0.52,0,0,1-.15-0.38v-4.76a0.52,0.52,0,0,1,.15-0.38,0.5,0.5,0,0,1,.38-0.15h1.05a0.5,0.5,0,0,1,.38.15,0.52,0.52,0,0,1,.15.38v4.76A0.52,0.52,0,0,1,1108.55,2464.19Zm12.69,0a0.52,0.52,0,0,1-.38.15h-1.06a0.513,0.513,0,0,1-.53-0.53v-4.76a0.513,0.513,0,0,1,.53-0.53h1.06a0.513,0.513,0,0,1,.53.53v4.76A0.52,0.52,0,0,1,1121.24,2464.19Zm5.86-2.93a2.033,2.033,0,0,0-1.48-.62h-2.12v-1.59a2.629,2.629,0,0,0-2.64-2.64h-1.06a2.646,2.646,0,0,0-2.64,2.64v1.59h-6.34v-1.59a2.545,2.545,0,0,0-.78-1.87,2.575,2.575,0,0,0-1.87-.77h-1.05a2.575,2.575,0,0,0-1.87.77,2.545,2.545,0,0,0-.78,1.87v1.59h-2.11a2.072,2.072,0,0,0-1.49.62,2.042,2.042,0,0,0-.63,1.49v21.14a2.152,2.152,0,0,0,2.12,2.12h23.26a2,2,0,0,0,1.48-.63,2.026,2.026,0,0,0,.63-1.49v-21.14A2.042,2.042,0,0,0,1127.1,2461.26Z" transform="translate(-1100.25 -2456.41)"/>
</svg>
