<svg xmlns="http://www.w3.org/2000/svg" width="31.031" height="31.84" viewBox="0 0 31.031 31.84">
  <metadata><?xpacket begin="﻿" id="W5M0MpCehiHzreSzNTczkc9d"?>
<x:xmpmeta xmlns:x="adobe:ns:meta/" x:xmptk="Adobe XMP Core 5.6-c142 79.160924, 2017/07/13-01:06:39        ">
   <rdf:RDF xmlns:rdf="http://www.w3.org/1999/02/22-rdf-syntax-ns#">
      <rdf:Description rdf:about=""/>
   </rdf:RDF>
</x:xmpmeta>
                                                                                                    
                                                                                                    
                                                                                                    
                                                                                                    
                                                                                                    
                                                                                                    
                                                                                                    
                                                                                                    
                                                                                                    
                                                                                                    
                                                                                                    
                                                                                                    
                                                                                                    
                                                                                                    
                                                                                                    
                                                                                                    
                                                                                                    
                                                                                                    
                                                                                                    
                                                                                                    
                           
<?xpacket end="w"?></metadata>
<defs>
    <style>
      .cls-1 {
        fill: #fff;
        fill-rule: evenodd;
      }
    </style>
  </defs>
  <path id="Forma_4" data-name="Forma 4" class="cls-1" d="M799.383,1489.98a3.985,3.985,0,1,1,3.951-3.98A3.973,3.973,0,0,1,799.383,1489.98Zm0-5.98a2,2,0,1,0,1.976,2A1.992,1.992,0,0,0,799.383,1484Zm-6.7-5.35-1.4-1.41a10.717,10.717,0,0,1,15.223,0l-1.4,1.41A8.74,8.74,0,0,0,792.684,1478.65Zm16.865-6.42a14.312,14.312,0,0,0-20.331,0l-1.4-1.41a16.271,16.271,0,0,1,23.124,0Zm3.95-6.23a19.884,19.884,0,0,0-28.232,0l-1.4-1.41a21.843,21.843,0,0,1,31.025,0Z" transform="translate(-783.875 -1458.13)"/>
</svg>
