<svg xmlns="http://www.w3.org/2000/svg" width="18.19" height="19.28" viewBox="0 0 18.19 19.28">
  <metadata><?xpacket begin="﻿" id="W5M0MpCehiHzreSzNTczkc9d"?>
<x:xmpmeta xmlns:x="adobe:ns:meta/" x:xmptk="Adobe XMP Core 5.6-c142 79.160924, 2017/07/13-01:06:39        ">
   <rdf:RDF xmlns:rdf="http://www.w3.org/1999/02/22-rdf-syntax-ns#">
      <rdf:Description rdf:about=""/>
   </rdf:RDF>
</x:xmpmeta>
                                                                                                    
                                                                                                    
                                                                                                    
                                                                                                    
                                                                                                    
                                                                                                    
                                                                                                    
                                                                                                    
                                                                                                    
                                                                                                    
                                                                                                    
                                                                                                    
                                                                                                    
                                                                                                    
                                                                                                    
                                                                                                    
                                                                                                    
                                                                                                    
                                                                                                    
                                                                                                    
                           
<?xpacket end="w"?></metadata>
<defs>
    <style>
      .cls-1 {
        fill: #fff;
        fill-rule: evenodd;
      }
    </style>
  </defs>
  <path id="googleplus" class="cls-1" d="M1312.64,6576.14a4.591,4.591,0,0,1,.69-0.71c0.27-.23.53-0.48,0.8-0.76a3.58,3.58,0,0,0,.68-1.07,4.154,4.154,0,0,0-.16-3.36,5.483,5.483,0,0,0-1.29-1.54h1.51l1.59-1.02h-4.81a8.409,8.409,0,0,0-2.5.37,5.767,5.767,0,0,0-2.1,1.14,4.254,4.254,0,0,0-1.14,1.51,4.308,4.308,0,0,0-.42,1.85,3.741,3.741,0,0,0,1.17,2.83,3.985,3.985,0,0,0,2.87,1.12c0.17,0,.43-0.02.78-0.05a2.621,2.621,0,0,0-.24.99,1.93,1.93,0,0,0,.18.85,5.16,5.16,0,0,0,.55.85,10.24,10.24,0,0,0-4.65,1.16,4.248,4.248,0,0,0-1.36,1.34,3.08,3.08,0,0,0-.52,1.73,2.885,2.885,0,0,0,.43,1.52,3.669,3.669,0,0,0,1.97,1.6,8.261,8.261,0,0,0,2.84.48,8.741,8.741,0,0,0,3.43-.67,4.969,4.969,0,0,0,2.43-2.08,4.054,4.054,0,0,0,.55-2.01,3.694,3.694,0,0,0-.37-1.64,3.922,3.922,0,0,0-.89-1.21,13.357,13.357,0,0,0-1.04-.85,6.393,6.393,0,0,1-.89-0.79,1.178,1.178,0,0,1-.37-0.81A1.3,1.3,0,0,1,1312.64,6576.14Zm-3.07-.65a2.889,2.889,0,0,1-.86-0.77,5.587,5.587,0,0,1-.6-1.08,6.742,6.742,0,0,1-.36-1.19,5.8,5.8,0,0,1-.12-1.13,2.939,2.939,0,0,1,.54-1.86,2.158,2.158,0,0,1,.76-0.6,2.046,2.046,0,0,1,.95-0.23,2.146,2.146,0,0,1,1.34.47,3.6,3.6,0,0,1,.98,1.2,7.6,7.6,0,0,1,.55,1.51,5.924,5.924,0,0,1,.2,1.44,2.614,2.614,0,0,1-.61,1.85,2.188,2.188,0,0,1-.76.5,2.312,2.312,0,0,1-.9.19A2.15,2.15,0,0,1,1309.57,6575.49Zm-0.33,10.25a5.508,5.508,0,0,1-1.37-.51,2.688,2.688,0,0,1-1.05-.96,2.551,2.551,0,0,1-.41-1.43,2.457,2.457,0,0,1,.31-1.22,2.654,2.654,0,0,1,.79-0.87,4.651,4.651,0,0,1,1.12-.53,7.38,7.38,0,0,1,1.24-.29,9.546,9.546,0,0,1,1.2-.08c0.25,0,.43.01,0.56,0.02q0.03,0.03.42,0.3c0.25,0.19.41,0.31,0.47,0.35s0.2,0.16.42,0.34a4.5,4.5,0,0,1,.45.4c0.07,0.09.19,0.22,0.34,0.4a2.493,2.493,0,0,1,.31.48c0.05,0.14.11,0.31,0.16,0.49a1.87,1.87,0,0,1,.08.57,2.453,2.453,0,0,1-.31,1.26,2.214,2.214,0,0,1-.84.85,4.373,4.373,0,0,1-1.14.45,5.4,5.4,0,0,1-1.28.15A6.03,6.03,0,0,1,1309.24,6585.74Zm10.78-12.5h-1.2v2.52h-2.44v1.25h2.44v2.54h1.2v-2.54h2.46v-1.25h-2.46v-2.52Z" transform="translate(-1304.28 -6567.69)"/>
</svg>
