<svg xmlns="http://www.w3.org/2000/svg" width="30.66" height="26.97" viewBox="0 0 30.66 26.97">
  <metadata><?xpacket begin="﻿" id="W5M0MpCehiHzreSzNTczkc9d"?>
<x:xmpmeta xmlns:x="adobe:ns:meta/" x:xmptk="Adobe XMP Core 5.6-c142 79.160924, 2017/07/13-01:06:39        ">
   <rdf:RDF xmlns:rdf="http://www.w3.org/1999/02/22-rdf-syntax-ns#">
      <rdf:Description rdf:about=""/>
   </rdf:RDF>
</x:xmpmeta>
                                                                                                    
                                                                                                    
                                                                                                    
                                                                                                    
                                                                                                    
                                                                                                    
                                                                                                    
                                                                                                    
                                                                                                    
                                                                                                    
                                                                                                    
                                                                                                    
                                                                                                    
                                                                                                    
                                                                                                    
                                                                                                    
                                                                                                    
                                                                                                    
                                                                                                    
                                                                                                    
                           
<?xpacket end="w"?></metadata>
<defs>
    <style>
      .cls-1 {
        fill: #fff;
        fill-rule: evenodd;
      }
    </style>
  </defs>
  <path id="heart" class="cls-1" d="M1318.83,2475.01l-9.91,9.81-9.93-9.83c-2.14-2.19-3.2-4.27-3.2-6.24a7.752,7.752,0,0,1,.37-2.51,4.966,4.966,0,0,1,.94-1.73,4.566,4.566,0,0,1,1.39-1.04,6.271,6.271,0,0,1,1.61-.55,9.81,9.81,0,0,1,1.67-.14,4.808,4.808,0,0,1,1.92.45,8.6,8.6,0,0,1,1.89,1.13c0.57,0.45,1.07.87,1.48,1.26a12.093,12.093,0,0,1,1.02,1.08,1.1,1.1,0,0,0,1.68,0,12.093,12.093,0,0,1,1.02-1.08c0.41-.39.91-0.81,1.48-1.26a8.6,8.6,0,0,1,1.89-1.13,4.764,4.764,0,0,1,1.91-.45,9.842,9.842,0,0,1,1.68.14,6.4,6.4,0,0,1,1.61.55,4.691,4.691,0,0,1,1.39,1.04,4.966,4.966,0,0,1,.94,1.73,7.752,7.752,0,0,1,.37,2.51c0,1.97-1.07,4.05-3.22,6.26h0Zm3.24-12.3a8.114,8.114,0,0,0-6.01-2.17,6.719,6.719,0,0,0-2.16.37,9.341,9.341,0,0,0-2.05,1.02c-0.63.43-1.18,0.83-1.63,1.21a14.67,14.67,0,0,0-1.3,1.19,14.67,14.67,0,0,0-1.3-1.19c-0.46-.38-1-0.78-1.63-1.21a9.566,9.566,0,0,0-2.05-1.02,6.733,6.733,0,0,0-2.17-.37,7.521,7.521,0,0,0-8.17,8.21,7.822,7.822,0,0,0,.4,2.43,10.857,10.857,0,0,0,.92,2.12,14.7,14.7,0,0,0,1.16,1.71c0.43,0.56.75,0.94,0.95,1.15a3.8,3.8,0,0,0,.47.46l10.67,10.57a1.039,1.039,0,0,0,1.5,0l10.65-10.53q3.915-4.02,3.92-7.91A8.228,8.228,0,0,0,1322.07,2462.71Z" transform="translate(-1293.59 -2460.53)"/>
</svg>
