<svg xmlns="http://www.w3.org/2000/svg" width="32" height="22" viewBox="0 0 32 22">
  <metadata><?xpacket begin="﻿" id="W5M0MpCehiHzreSzNTczkc9d"?>
<x:xmpmeta xmlns:x="adobe:ns:meta/" x:xmptk="Adobe XMP Core 5.6-c142 79.160924, 2017/07/13-01:06:39        ">
   <rdf:RDF xmlns:rdf="http://www.w3.org/1999/02/22-rdf-syntax-ns#">
      <rdf:Description rdf:about=""/>
   </rdf:RDF>
</x:xmpmeta>
                                                                                                    
                                                                                                    
                                                                                                    
                                                                                                    
                                                                                                    
                                                                                                    
                                                                                                    
                                                                                                    
                                                                                                    
                                                                                                    
                                                                                                    
                                                                                                    
                                                                                                    
                                                                                                    
                                                                                                    
                                                                                                    
                                                                                                    
                                                                                                    
                                                                                                    
                                                                                                    
                           
<?xpacket end="w"?></metadata>
<defs>
    <style>
      .cls-1 {
        fill: #fafafa;
        fill-rule: evenodd;
      }
    </style>
  </defs>
  <path id="icloud" class="cls-1" d="M826,4088h-2c0-.14,0-0.29-0.011-0.43l-0.014-.13,0.008-.1a7.268,7.268,0,0,1,7.083-6.34l0.024,2a5.228,5.228,0,0,0-5.105,4.44C825.991,4087.66,826,4087.83,826,4088Zm5,11H818a8,8,0,1,1,0-16v2a6,6,0,1,0,0,12H831a9,9,0,0,0,.074-18,9.181,9.181,0,0,0-9.084,8.16,3.684,3.684,0,0,0,0,.47c0,0.12.008,0.25,0.008,0.37h-2c0-.1,0-0.2-0.008-0.29a5.872,5.872,0,0,1,.009-0.74,11.2,11.2,0,0,1,11-9.97h0.15A11,11,0,0,1,831,4099Z" transform="translate(-810 -4077)"/>
</svg>
