<svg xmlns="http://www.w3.org/2000/svg" width="22.031" height="33.03" viewBox="0 0 22.031 33.03">
  <metadata><?xpacket begin="﻿" id="W5M0MpCehiHzreSzNTczkc9d"?>
<x:xmpmeta xmlns:x="adobe:ns:meta/" x:xmptk="Adobe XMP Core 5.6-c142 79.160924, 2017/07/13-01:06:39        ">
   <rdf:RDF xmlns:rdf="http://www.w3.org/1999/02/22-rdf-syntax-ns#">
      <rdf:Description rdf:about=""/>
   </rdf:RDF>
</x:xmpmeta>
                                                                                                    
                                                                                                    
                                                                                                    
                                                                                                    
                                                                                                    
                                                                                                    
                                                                                                    
                                                                                                    
                                                                                                    
                                                                                                    
                                                                                                    
                                                                                                    
                                                                                                    
                                                                                                    
                                                                                                    
                                                                                                    
                                                                                                    
                                                                                                    
                                                                                                    
                                                                                                    
                           
<?xpacket end="w"?></metadata>
<defs>
    <style>
      .cls-1 {
        fill: #fff;
        fill-rule: evenodd;
      }
    </style>
  </defs>
  <path id="locations" class="cls-1" d="M721.357,2469.23a5.5,5.5,0,1,1,3.893-1.61A5.322,5.322,0,0,1,721.357,2469.23Zm7.786-13.29a11.013,11.013,0,0,0-18.8,7.78,9.02,9.02,0,0,0,.71,3.85l7.851,16.65a2.482,2.482,0,0,0,1,1.12,2.774,2.774,0,0,0,2.9,0,2.621,2.621,0,0,0,1.022-1.12l7.829-16.65a9.02,9.02,0,0,0,.71-3.85A10.6,10.6,0,0,0,729.143,2455.94Z" transform="translate(-710.344 -2452.72)"/>
</svg>
