<svg xmlns="http://www.w3.org/2000/svg" width="21.907" height="31.97" viewBox="0 0 21.907 31.97">
  <metadata><?xpacket begin="﻿" id="W5M0MpCehiHzreSzNTczkc9d"?>
<x:xmpmeta xmlns:x="adobe:ns:meta/" x:xmptk="Adobe XMP Core 5.6-c142 79.160924, 2017/07/13-01:06:39        ">
   <rdf:RDF xmlns:rdf="http://www.w3.org/1999/02/22-rdf-syntax-ns#">
      <rdf:Description rdf:about=""/>
   </rdf:RDF>
</x:xmpmeta>
                                                                                                    
                                                                                                    
                                                                                                    
                                                                                                    
                                                                                                    
                                                                                                    
                                                                                                    
                                                                                                    
                                                                                                    
                                                                                                    
                                                                                                    
                                                                                                    
                                                                                                    
                                                                                                    
                                                                                                    
                                                                                                    
                                                                                                    
                                                                                                    
                                                                                                    
                                                                                                    
                           
<?xpacket end="w"?></metadata>
<defs>
    <style>
      .cls-1 {
        fill: #fafafa;
        fill-rule: evenodd;
      }
    </style>
  </defs>
  <path id="maps" class="cls-1" d="M905.234,4118.15a11.484,11.484,0,0,1,0-15.89,10.731,10.731,0,0,1,7.749-3.3h0a10.727,10.727,0,0,1,7.748,3.3,11.487,11.487,0,0,1,0,15.89l-1.424-1.4a9.462,9.462,0,0,0,0-13.09,8.762,8.762,0,0,0-6.325-2.7h0a8.77,8.77,0,0,0-6.327,2.7,9.45,9.45,0,0,0,0,13.08Zm7.749,12.8-5.821-9.39,1.689-1.06,4.132,6.66,4.133-6.66,1.687,1.06Zm0-14.94a6.02,6.02,0,1,1,5.972-6.02A6,6,0,0,1,912.983,4116.01Zm0-10.03a4.015,4.015,0,1,0,3.981,4.01A4,4,0,0,0,912.983,4105.98Z" transform="translate(-902.031 -4098.97)"/>
</svg>
