<svg xmlns="http://www.w3.org/2000/svg" width="28" height="32" viewBox="0 0 28 32">
  <metadata><?xpacket begin="﻿" id="W5M0MpCehiHzreSzNTczkc9d"?>
<x:xmpmeta xmlns:x="adobe:ns:meta/" x:xmptk="Adobe XMP Core 5.6-c142 79.160924, 2017/07/13-01:06:39        ">
   <rdf:RDF xmlns:rdf="http://www.w3.org/1999/02/22-rdf-syntax-ns#">
      <rdf:Description rdf:about=""/>
   </rdf:RDF>
</x:xmpmeta>
                                                                                                    
                                                                                                    
                                                                                                    
                                                                                                    
                                                                                                    
                                                                                                    
                                                                                                    
                                                                                                    
                                                                                                    
                                                                                                    
                                                                                                    
                                                                                                    
                                                                                                    
                                                                                                    
                                                                                                    
                                                                                                    
                                                                                                    
                                                                                                    
                                                                                                    
                                                                                                    
                           
<?xpacket end="w"?></metadata>
<defs>
    <style>
      .cls-1 {
        fill: #fafafa;
        fill-rule: evenodd;
      }
    </style>
  </defs>
  <path id="musics" class="cls-1" d="M922,4128.97a6.015,6.015,0,1,1,6-6.02A6.016,6.016,0,0,1,922,4128.97Zm0-10.03a4.01,4.01,0,1,0,4,4.01A4.01,4.01,0,0,0,922,4118.94Zm-16,12.03a6.015,6.015,0,1,1,6-6.01A6.014,6.014,0,0,1,906,4130.97Zm0-10.02a4.01,4.01,0,1,0,4,4.01A4.01,4.01,0,0,0,906,4120.95Zm6,4.01h-2v-18.72l16.6-7.26,0.8,1.84-15.4,6.73v17.41Zm14-21.05h2v19.04h-2v-19.04Z" transform="translate(-900 -4098.97)"/>
</svg>
