<svg xmlns="http://www.w3.org/2000/svg" width="22.032" height="32" viewBox="0 0 22.032 32">
  <metadata><?xpacket begin="﻿" id="W5M0MpCehiHzreSzNTczkc9d"?>
<x:xmpmeta xmlns:x="adobe:ns:meta/" x:xmptk="Adobe XMP Core 5.6-c142 79.160924, 2017/07/13-01:06:39        ">
   <rdf:RDF xmlns:rdf="http://www.w3.org/1999/02/22-rdf-syntax-ns#">
      <rdf:Description rdf:about=""/>
   </rdf:RDF>
</x:xmpmeta>
                                                                                                    
                                                                                                    
                                                                                                    
                                                                                                    
                                                                                                    
                                                                                                    
                                                                                                    
                                                                                                    
                                                                                                    
                                                                                                    
                                                                                                    
                                                                                                    
                                                                                                    
                                                                                                    
                                                                                                    
                                                                                                    
                                                                                                    
                                                                                                    
                                                                                                    
                                                                                                    
                           
<?xpacket end="w"?></metadata>
<defs>
    <style>
      .cls-1 {
        fill: #d7cdcd;
        fill-rule: evenodd;
      }
    </style>
  </defs>
  <path id="reminders" class="cls-1" d="M915.608,4099l0.314,1.97-5.913.97-0.313-1.97Zm8.215,26.99h-22.03l2.148-13.13a8.867,8.867,0,1,1,17.734-.01Zm-19.7-2H921.5l-1.793-11.05a6.9,6.9,0,1,0-13.793.01l-0.014.16Zm4.74-2.87-1.953-.26,0.976-7.9a4.956,4.956,0,0,1,4.926-4.98v2a2.967,2.967,0,0,0-2.955,2.98l-0.009.58Zm3.949,9.88a2.986,2.986,0,0,1-2.955-3.01h1.97a0.985,0.985,0,1,0,1.97,0h1.971A2.987,2.987,0,0,1,912.808,4131Z" transform="translate(-901.781 -4099)"/>
</svg>
