<svg xmlns="http://www.w3.org/2000/svg" width="32" height="30" viewBox="0 0 32 30">
  <metadata><?xpacket begin="﻿" id="W5M0MpCehiHzreSzNTczkc9d"?>
<x:xmpmeta xmlns:x="adobe:ns:meta/" x:xmptk="Adobe XMP Core 5.6-c142 79.160924, 2017/07/13-01:06:39        ">
   <rdf:RDF xmlns:rdf="http://www.w3.org/1999/02/22-rdf-syntax-ns#">
      <rdf:Description rdf:about=""/>
   </rdf:RDF>
</x:xmpmeta>
                                                                                                    
                                                                                                    
                                                                                                    
                                                                                                    
                                                                                                    
                                                                                                    
                                                                                                    
                                                                                                    
                                                                                                    
                                                                                                    
                                                                                                    
                                                                                                    
                                                                                                    
                                                                                                    
                                                                                                    
                                                                                                    
                                                                                                    
                                                                                                    
                                                                                                    
                                                                                                    
                           
<?xpacket end="w"?></metadata>
<defs>
    <style>
      .cls-1 {
        fill: #f9f9f9;
        fill-rule: evenodd;
      }
    </style>
  </defs>
  <path id="Forma_3" data-name="Forma 3" class="cls-1" d="M789,1480a5,5,0,1,1,5-5A5,5,0,0,1,789,1480Zm0-8a3,3,0,1,0,3,3A3.006,3.006,0,0,0,789,1472Zm22-2a5,5,0,1,1,5-5A5,5,0,0,1,811,1470Zm0-8a3,3,0,1,0,3,3A3.006,3.006,0,0,0,811,1462Zm0,28a5,5,0,1,1,5-5A5,5,0,0,1,811,1490Zm0-8a3,3,0,1,0,3,3A3.006,3.006,0,0,0,811,1482Zm-7.447-14.89,0.894,1.78-8,4-0.894-1.78Zm-7.106,10,8,4-0.893,1.78-8-4,0.894-1.78h0Z" transform="translate(-784 -1460)"/>
</svg>
