<svg xmlns="http://www.w3.org/2000/svg" width="18.12" height="14.84" viewBox="0 0 18.12 14.84">
  <metadata><?xpacket begin="﻿" id="W5M0MpCehiHzreSzNTczkc9d"?>
<x:xmpmeta xmlns:x="adobe:ns:meta/" x:xmptk="Adobe XMP Core 5.6-c142 79.160924, 2017/07/13-01:06:39        ">
   <rdf:RDF xmlns:rdf="http://www.w3.org/1999/02/22-rdf-syntax-ns#">
      <rdf:Description rdf:about=""/>
   </rdf:RDF>
</x:xmpmeta>
                                                                                                    
                                                                                                    
                                                                                                    
                                                                                                    
                                                                                                    
                                                                                                    
                                                                                                    
                                                                                                    
                                                                                                    
                                                                                                    
                                                                                                    
                                                                                                    
                                                                                                    
                                                                                                    
                                                                                                    
                                                                                                    
                                                                                                    
                                                                                                    
                                                                                                    
                                                                                                    
                           
<?xpacket end="w"?></metadata>
<defs>
    <style>
      .cls-1 {
        fill: #fff;
        fill-rule: evenodd;
      }
    </style>
  </defs>
  <path id="twitter" class="cls-1" d="M1215.96,6572.55a3.6,3.6,0,0,0,1.63-2.06,7.461,7.461,0,0,1-2.36.91,3.687,3.687,0,0,0-5.34-.09,3.6,3.6,0,0,0-1.09,2.65,4.336,4.336,0,0,0,.09.86,10.341,10.341,0,0,1-4.27-1.16,10.569,10.569,0,0,1-3.39-2.76,3.745,3.745,0,0,0,1.15,5,3.656,3.656,0,0,1-1.68-.47v0.05a3.744,3.744,0,0,0,2.98,3.67,3.615,3.615,0,0,1-.98.13,4.513,4.513,0,0,1-.7-0.06,3.728,3.728,0,0,0,3.48,2.6,7.288,7.288,0,0,1-4.62,1.6,8.125,8.125,0,0,1-.9-0.05,10.285,10.285,0,0,0,5.71,1.68,10.844,10.844,0,0,0,3.72-.63,9.64,9.64,0,0,0,2.97-1.69,11.52,11.52,0,0,0,2.12-2.44,11.021,11.021,0,0,0,1.33-2.88,10.839,10.839,0,0,0,.43-3.01c0-.22,0-0.38-0.01-0.49a7.978,7.978,0,0,0,1.87-1.93,7.479,7.479,0,0,1-2.14.57h0Z" transform="translate(-1199.97 -6570.22)"/>
</svg>
