<svg xmlns="http://www.w3.org/2000/svg" width="23.437" height="33.81" viewBox="0 0 23.437 33.81">
  <metadata><?xpacket begin="﻿" id="W5M0MpCehiHzreSzNTczkc9d"?>
<x:xmpmeta xmlns:x="adobe:ns:meta/" x:xmptk="Adobe XMP Core 5.6-c142 79.160924, 2017/07/13-01:06:39        ">
   <rdf:RDF xmlns:rdf="http://www.w3.org/1999/02/22-rdf-syntax-ns#">
      <rdf:Description rdf:about=""/>
   </rdf:RDF>
</x:xmpmeta>
                                                                                                    
                                                                                                    
                                                                                                    
                                                                                                    
                                                                                                    
                                                                                                    
                                                                                                    
                                                                                                    
                                                                                                    
                                                                                                    
                                                                                                    
                                                                                                    
                                                                                                    
                                                                                                    
                                                                                                    
                                                                                                    
                                                                                                    
                                                                                                    
                                                                                                    
                                                                                                    
                           
<?xpacket end="w"?></metadata>
<defs>
    <style>
      .cls-1 {
        fill: #47a4d7;
        fill-rule: evenodd;
      }
    </style>
  </defs>
  <path id="voice" class="cls-1" d="M931.6,2467.77a1.3,1.3,0,0,0-2.216.91v2.61a9.109,9.109,0,0,1-18.217,0v-2.61a1.3,1.3,0,0,0-2.6,0v2.61a11.726,11.726,0,0,0,10.41,11.63v2.68h-5.205a1.325,1.325,0,0,0-1.3,1.3,1.308,1.308,0,0,0,1.3,1.3h13.012a1.309,1.309,0,0,0,1.3-1.3,1.23,1.23,0,0,0-.387-0.91,1.243,1.243,0,0,0-.915-0.39h-5.2v-2.68a11.726,11.726,0,0,0,10.41-11.63v-2.61A1.249,1.249,0,0,0,931.6,2467.77Zm-6.73-11.49a6.506,6.506,0,0,0-11.1,4.6v10.41a6.506,6.506,0,0,0,13.012,0v-10.41A6.285,6.285,0,0,0,924.87,2456.28Z" transform="translate(-908.563 -2454.38)"/>
</svg>
