<svg xmlns="http://www.w3.org/2000/svg" width="17.16" height="20.79" viewBox="0 0 17.16 20.79">
  <metadata><?xpacket begin="﻿" id="W5M0MpCehiHzreSzNTczkc9d"?>
<x:xmpmeta xmlns:x="adobe:ns:meta/" x:xmptk="Adobe XMP Core 5.6-c142 79.160924, 2017/07/13-01:06:39        ">
   <rdf:RDF xmlns:rdf="http://www.w3.org/1999/02/22-rdf-syntax-ns#">
      <rdf:Description rdf:about=""/>
   </rdf:RDF>
</x:xmpmeta>
                                                                                                    
                                                                                                    
                                                                                                    
                                                                                                    
                                                                                                    
                                                                                                    
                                                                                                    
                                                                                                    
                                                                                                    
                                                                                                    
                                                                                                    
                                                                                                    
                                                                                                    
                                                                                                    
                                                                                                    
                                                                                                    
                                                                                                    
                                                                                                    
                                                                                                    
                                                                                                    
                           
<?xpacket end="w"?></metadata>
<defs>
    <style>
      .cls-1 {
        fill: #fff;
        fill-rule: evenodd;
      }
    </style>
  </defs>
  <path id="youtube" class="cls-1" d="M1368.34,6580.24a0.75,0.75,0,0,0-.53.25v3.49a0.764,0.764,0,0,0,.53.26q0.45,0,.45-0.78v-2.44q0-.78-0.45-0.78h0Zm3.84,0c-0.35,0-.52.26-0.52,0.79v0.53h1.04v-0.53C1372.7,6580.5,1372.53,6580.24,1372.18,6580.24Zm-10.66,4.86h-1.16v-6.6h-1.22v-1.09h3.61v1.09h-1.23v6.6Zm3.33-.63a1.711,1.711,0,0,1-1.18.71,0.623,0.623,0,0,1-.67-0.43,2.994,2.994,0,0,1-.09-0.85v-4.53h1.03v4.22a3.065,3.065,0,0,0,.01.41,0.231,0.231,0,0,0,.24.24,0.908,0.908,0,0,0,.66-0.49v-4.38h1.03v5.73h-1.03v-0.63Zm4.86,0.07a0.794,0.794,0,0,1-.82.64,1.435,1.435,0,0,1-1.08-.64v0.56h-1.03v-7.69h1.03v2.52a1.4,1.4,0,0,1,1.08-.63,0.8,0.8,0,0,1,.82.65,4.029,4.029,0,0,1,.11,1.15v2.28a4.163,4.163,0,0,1-.11,1.16h0Zm4-.6a1.427,1.427,0,0,1-.25.62,1.4,1.4,0,0,1-1.25.62,1.5,1.5,0,0,1-1.25-.59,2.235,2.235,0,0,1-.33-1.35v-2a2.314,2.314,0,0,1,.32-1.35,1.491,1.491,0,0,1,1.24-.59,1.472,1.472,0,0,1,1.23.59,2.321,2.321,0,0,1,.31,1.35v1.19h-2.07v1.01c0,0.53.18,0.8,0.53,0.8a0.436,0.436,0,0,0,.46-0.42,4.465,4.465,0,0,0,.03-0.71h1.05v0.16c0,0.37-.01.6-0.02,0.67h0Zm-7.52-10.45c-0.33,0-.49-0.27-0.49-0.81v-2.43c0-.53.16-0.8,0.49-0.8s0.5,0.27.5,0.8v2.43C1366.69,6573.22,1366.52,6573.49,1366.19,6573.49Zm8.52,3.84a2.125,2.125,0,0,0-.66-1.15,2.07,2.07,0,0,0-1.19-.54,89.716,89.716,0,0,0-12.84,0,2.07,2.07,0,0,0-1.19.54,2.2,2.2,0,0,0-.67,1.15,20.221,20.221,0,0,0-.3,4.06,19.817,19.817,0,0,0,.3,4.06,2.134,2.134,0,0,0,.66,1.14,2.1,2.1,0,0,0,1.19.54,86.121,86.121,0,0,0,12.85,0,2.042,2.042,0,0,0,1.18-.54,2.15,2.15,0,0,0,.67-1.14,19.352,19.352,0,0,0,.31-4.06,18.969,18.969,0,0,0-.31-4.06h0Zm-12.04-7.68-0.82-3.05h-1.23c0.22,0.65.47,1.37,0.76,2.16a20.52,20.52,0,0,1,.7,2.46v3.14h1.16v-3.14l1.4-4.62h-1.18Zm4.75-.55a1.556,1.556,0,0,0-2.44,0,2.249,2.249,0,0,0-.33,1.36v2.03a2.27,2.27,0,0,0,.33,1.36,1.556,1.556,0,0,0,2.44,0,2.235,2.235,0,0,0,.32-1.36v-2.03a2.255,2.255,0,0,0-.32-1.36h0Zm3.15-.52V6573a0.908,0.908,0,0,1-.66.49,0.233,0.233,0,0,1-.24-0.25,2.1,2.1,0,0,1-.02-0.41v-4.25h-1.05v4.57a3.106,3.106,0,0,0,.09.87,0.649,0.649,0,0,0,.69.42,1.69,1.69,0,0,0,1.19-.71v0.63h1.05v-5.78h-1.05Z" transform="translate(-1357.84 -6566.59)"/>
</svg>
